<svg width="24" height="24" viewBox="0 0 24 24" fill="none" xmlns="http://www.w3.org/2000/svg">
<path d="M12 1C18.0751 1 23 5.92487 23 12C23 18.0751 18.0751 23 12 23C5.92487 23 1 18.0751 1 12C1 5.92487 5.92487 1 12 1Z" stroke="#FF6600" stroke-width="2"/>
<path d="M14.145 15.055L15.055 14.145L12.65 11.74V8.75H11.35V12.26L14.145 15.055ZM12 18.5C11.1008 18.5 10.2558 18.3294 9.465 17.9881C8.67417 17.6469 7.98625 17.1837 7.40125 16.5987C6.81625 16.0138 6.35312 15.3258 6.01187 14.535C5.67063 13.7442 5.5 12.8992 5.5 12C5.5 11.1008 5.67063 10.2558 6.01187 9.465C6.35312 8.67417 6.81625 7.98625 7.40125 7.40125C7.98625 6.81625 8.67417 6.35312 9.465 6.01187C10.2558 5.67063 11.1008 5.5 12 5.5C12.8992 5.5 13.7442 5.67063 14.535 6.01187C15.3258 6.35312 16.0138 6.81625 16.5987 7.40125C17.1837 7.98625 17.6469 8.67417 17.9881 9.465C18.3294 10.2558 18.5 11.1008 18.5 12C18.5 12.8992 18.3294 13.7442 17.9881 14.535C17.6469 15.3258 17.1837 16.0138 16.5987 16.5987C16.0138 17.1837 15.3258 17.6469 14.535 17.9881C13.7442 18.3294 12.8992 18.5 12 18.5ZM12 17.2C13.4408 17.2 14.6677 16.6935 15.6806 15.6806C16.6935 14.6677 17.2 13.4408 17.2 12C17.2 10.5592 16.6935 9.33229 15.6806 8.31937C14.6677 7.30646 13.4408 6.8 12 6.8C10.5592 6.8 9.33229 7.30646 8.31937 8.31937C7.30646 9.33229 6.8 10.5592 6.8 12C6.8 13.4408 7.30646 14.6677 8.31937 15.6806C9.33229 16.6935 10.5592 17.2 12 17.2Z" fill="#FF7900"/>
</svg>
