<svg width="40" height="40" viewBox="0 0 40 40" fill="none" xmlns="http://www.w3.org/2000/svg">
<rect x="0.5" y="0.5" width="39" height="39" rx="7.5" fill="white"/>
<rect x="0.5" y="0.5" width="39" height="39" rx="7.5" stroke="#E7E7E7"/>
<path d="M19.5 36.8571C16.5976 36.8571 14.2292 36.3985 12.3946 35.4813C10.5601 34.564 9.64286 33.3798 9.64286 31.9286C9.64286 31.2714 9.84137 30.6622 10.2384 30.1009C10.6354 29.5396 11.1899 29.0536 11.9018 28.6429L14.4893 31.0661C14.2429 31.1756 13.9759 31.2988 13.6884 31.4357C13.4009 31.5726 13.175 31.7369 13.0107 31.9286C13.3667 32.3667 14.1881 32.75 15.475 33.0786C16.7619 33.4071 18.1036 33.5714 19.5 33.5714C20.8964 33.5714 22.2449 33.4071 23.5455 33.0786C24.8461 32.75 25.6744 32.3667 26.0304 31.9286C25.8387 31.7095 25.5923 31.5315 25.2911 31.3946C24.9899 31.2577 24.7024 31.1345 24.4286 31.025L26.975 28.5607C27.7417 28.9988 28.3304 29.4985 28.7411 30.0598C29.1518 30.6211 29.3571 31.244 29.3571 31.9286C29.3571 33.3798 28.4399 34.564 26.6054 35.4813C24.7708 36.3985 22.4024 36.8571 19.5 36.8571ZM19.5411 27.8214C22.2518 25.8226 24.2917 23.817 25.6607 21.8045C27.0298 19.792 27.7143 17.7726 27.7143 15.7464C27.7143 12.9536 26.8244 10.8452 25.0446 9.42143C23.2649 7.99762 21.4167 7.28571 19.5 7.28571C17.5833 7.28571 15.7351 7.99762 13.9554 9.42143C12.1756 10.8452 11.2857 12.9536 11.2857 15.7464C11.2857 17.581 11.9565 19.4908 13.2982 21.4759C14.6399 23.461 16.7208 25.5762 19.5411 27.8214ZM19.5 31.9286C15.6393 29.081 12.7574 26.3155 10.8545 23.6321C8.95149 20.9488 8 18.3202 8 15.7464C8 13.8024 8.34911 12.0979 9.04732 10.633C9.74554 9.16815 10.6423 7.94286 11.7375 6.95714C12.8327 5.97143 14.0649 5.23214 15.4339 4.73929C16.803 4.24643 18.1583 4 19.5 4C20.8417 4 22.197 4.24643 23.5661 4.73929C24.9351 5.23214 26.1673 5.97143 27.2625 6.95714C28.3577 7.94286 29.2545 9.16815 29.9527 10.633C30.6509 12.0979 31 13.8024 31 15.7464C31 18.3202 30.0485 20.9488 28.1455 23.6321C26.2426 26.3155 23.3607 29.081 19.5 31.9286ZM19.5 18.7857C20.4036 18.7857 21.1771 18.464 21.8205 17.8205C22.464 17.1771 22.7857 16.4036 22.7857 15.5C22.7857 14.5964 22.464 13.8229 21.8205 13.1795C21.1771 12.536 20.4036 12.2143 19.5 12.2143C18.5964 12.2143 17.8229 12.536 17.1795 13.1795C16.536 13.8229 16.2143 14.5964 16.2143 15.5C16.2143 16.4036 16.536 17.1771 17.1795 17.8205C17.8229 18.464 18.5964 18.7857 19.5 18.7857Z" fill="black"/>
<g clip-path="url(#clip0_750_1887)">
<path d="M19.5 36.8571C16.5976 36.8571 14.2292 36.3985 12.3946 35.4813C10.5601 34.564 9.64286 33.3798 9.64286 31.9286C9.64286 31.2714 9.84137 30.6622 10.2384 30.1009C10.6354 29.5396 11.1899 29.0536 11.9018 28.6429L14.4893 31.0661C14.2429 31.1756 13.9759 31.2988 13.6884 31.4357C13.4009 31.5726 13.175 31.7369 13.0107 31.9286C13.3667 32.3667 14.1881 32.75 15.475 33.0786C16.7619 33.4071 18.1036 33.5714 19.5 33.5714C20.8964 33.5714 22.2449 33.4071 23.5455 33.0786C24.8461 32.75 25.6744 32.3667 26.0304 31.9286C25.8387 31.7095 25.5923 31.5315 25.2911 31.3946C24.9899 31.2577 24.7024 31.1345 24.4286 31.025L26.975 28.5607C27.7417 28.9988 28.3304 29.4985 28.7411 30.0598C29.1518 30.6211 29.3571 31.244 29.3571 31.9286C29.3571 33.3798 28.4399 34.564 26.6054 35.4813C24.7708 36.3985 22.4024 36.8571 19.5 36.8571ZM19.5411 27.8214C22.2518 25.8226 24.2917 23.817 25.6607 21.8045C27.0298 19.792 27.7143 17.7726 27.7143 15.7464C27.7143 12.9536 26.8244 10.8452 25.0446 9.42143C23.2649 7.99762 21.4167 7.28571 19.5 7.28571C17.5833 7.28571 15.7351 7.99762 13.9554 9.42143C12.1756 10.8452 11.2857 12.9536 11.2857 15.7464C11.2857 17.581 11.9565 19.4908 13.2982 21.4759C14.6399 23.461 16.7208 25.5762 19.5411 27.8214ZM19.5 31.9286C15.6393 29.081 12.7574 26.3155 10.8545 23.6321C8.95149 20.9488 8 18.3202 8 15.7464C8 13.8024 8.34911 12.0979 9.04732 10.633C9.74554 9.16815 10.6423 7.94286 11.7375 6.95714C12.8327 5.97143 14.0649 5.23214 15.4339 4.73929C16.803 4.24643 18.1583 4 19.5 4C20.8417 4 22.197 4.24643 23.5661 4.73929C24.9351 5.23214 26.1673 5.97143 27.2625 6.95714C28.3577 7.94286 29.2545 9.16815 29.9527 10.633C30.6509 12.0979 31 13.8024 31 15.7464C31 18.3202 30.0485 20.9488 28.1455 23.6321C26.2426 26.3155 23.3607 29.081 19.5 31.9286ZM19.5 18.7857C20.4036 18.7857 21.1771 18.464 21.8205 17.8205C22.464 17.1771 22.7857 16.4036 22.7857 15.5C22.7857 14.5964 22.464 13.8229 21.8205 13.1795C21.1771 12.536 20.4036 12.2143 19.5 12.2143C18.5964 12.2143 17.8229 12.536 17.1795 13.1795C16.536 13.8229 16.2143 14.5964 16.2143 15.5C16.2143 16.4036 16.536 17.1771 17.1795 17.8205C17.8229 18.464 18.5964 18.7857 19.5 18.7857Z" fill="#FF7900"/>
</g>
<defs>
<clipPath id="clip0_750_1887">
<rect width="23" height="11.5" fill="white" transform="translate(8 25.3571)"/>
</clipPath>
</defs>
</svg>
