<svg width="40" height="40" viewBox="0 0 40 40" fill="none" xmlns="http://www.w3.org/2000/svg">
<rect x="0.5" y="0.5" width="39" height="39" rx="7.5" fill="white"/>
<rect x="0.5" y="0.5" width="39" height="39" rx="7.5" stroke="#E7E7E7"/>
<rect width="28" height="28" transform="translate(6 6.5)" fill="white"/>
<path d="M10.6668 29.8333C10.0252 29.8333 9.47586 29.6049 9.01891 29.1479C8.56197 28.691 8.3335 28.1417 8.3335 27.5V13.5C8.3335 12.8583 8.56197 12.309 9.01891 11.8521C9.47586 11.3951 10.0252 11.1667 10.6668 11.1667H29.3335C29.9752 11.1667 30.5245 11.3951 30.9814 11.8521C31.4384 12.309 31.6668 12.8583 31.6668 13.5V27.5C31.6668 28.1417 31.4384 28.691 30.9814 29.1479C30.5245 29.6049 29.9752 29.8333 29.3335 29.8333H10.6668ZM20.0002 21.6667L10.6668 15.8333V27.5H29.3335V15.8333L20.0002 21.6667ZM20.0002 19.3333L29.3335 13.5H10.6668L20.0002 19.3333ZM10.6668 15.8333V13.5V27.5V15.8333Z" fill="#1F1F1F"/>
<g clip-path="url(#clip0_706_5181)">
<path d="M10.6663 29.8333C10.0247 29.8333 9.47537 29.6049 9.01842 29.1479C8.56148 28.691 8.33301 28.1417 8.33301 27.5V13.5C8.33301 12.8583 8.56148 12.309 9.01842 11.8521C9.47537 11.3951 10.0247 11.1667 10.6663 11.1667H29.333C29.9747 11.1667 30.524 11.3951 30.9809 11.8521C31.4379 12.309 31.6663 12.8583 31.6663 13.5V27.5C31.6663 28.1417 31.4379 28.691 30.9809 29.1479C30.524 29.6049 29.9747 29.8333 29.333 29.8333H10.6663ZM19.9997 21.6667L10.6663 15.8333V27.5H29.333V15.8333L19.9997 21.6667ZM19.9997 19.3333L29.333 13.5H10.6663L19.9997 19.3333ZM10.6663 15.8333V13.5V27.5V15.8333Z" fill="#FF7900"/>
</g>
<g clip-path="url(#clip1_706_5181)">
<path d="M10.6668 29.8333C10.0252 29.8333 9.47586 29.6049 9.01891 29.1479C8.56197 28.691 8.3335 28.1417 8.3335 27.5V13.5C8.3335 12.8583 8.56197 12.309 9.01891 11.8521C9.47586 11.3951 10.0252 11.1667 10.6668 11.1667H29.3335C29.9752 11.1667 30.5245 11.3951 30.9814 11.8521C31.4384 12.309 31.6668 12.8583 31.6668 13.5V27.5C31.6668 28.1417 31.4384 28.691 30.9814 29.1479C30.5245 29.6049 29.9752 29.8333 29.3335 29.8333H10.6668ZM20.0002 21.6667L10.6668 15.8333V27.5H29.3335V15.8333L20.0002 21.6667ZM20.0002 19.3333L29.3335 13.5H10.6668L20.0002 19.3333ZM10.6668 15.8333V13.5V27.5V15.8333Z" fill="#FF7900"/>
</g>
<g clip-path="url(#clip2_706_5181)">
<path d="M10.6663 29.8333C10.0247 29.8333 9.47537 29.6049 9.01842 29.1479C8.56148 28.691 8.33301 28.1417 8.33301 27.5V13.5C8.33301 12.8583 8.56148 12.309 9.01842 11.8521C9.47537 11.3951 10.0247 11.1667 10.6663 11.1667H29.333C29.9747 11.1667 30.524 11.3951 30.9809 11.8521C31.4379 12.309 31.6663 12.8583 31.6663 13.5V27.5C31.6663 28.1417 31.4379 28.691 30.9809 29.1479C30.524 29.6049 29.9747 29.8333 29.333 29.8333H10.6663ZM19.9997 21.6667L10.6663 15.8333V27.5H29.333V15.8333L19.9997 21.6667ZM19.9997 19.3333L29.333 13.5H10.6663L19.9997 19.3333ZM10.6663 15.8333V13.5V27.5V15.8333Z" fill="#FF7900"/>
</g>
<defs>
<clipPath id="clip0_706_5181">
<rect width="18.6667" height="10.5" fill="white" transform="translate(10.6665 11.1667)"/>
</clipPath>
<clipPath id="clip1_706_5181">
<rect width="3.5" height="4.66667" fill="white" transform="translate(8.3335 11.1667)"/>
</clipPath>
<clipPath id="clip2_706_5181">
<rect width="3.5" height="4.66667" fill="white" transform="translate(28.1665 11.1667)"/>
</clipPath>
</defs>
</svg>
