<svg width="40" height="40" viewBox="0 0 40 40" fill="none" xmlns="http://www.w3.org/2000/svg">
<rect x="0.5" y="0.5" width="39" height="39" rx="7.5" fill="white"/>
<rect x="0.5" y="0.5" width="39" height="39" rx="7.5" stroke="#E7E7E7"/>
<g clip-path="url(#clip0_706_5171)">
<path d="M29.6906 30.4375C27.2167 30.4375 24.7724 29.8982 22.3578 28.8195C19.9432 27.7409 17.7464 26.212 15.7672 24.2328C13.788 22.2536 12.2591 20.0568 11.1805 17.6422C10.1018 15.2276 9.5625 12.7833 9.5625 10.3094C9.5625 9.95312 9.68125 9.65625 9.91875 9.41875C10.1562 9.18125 10.4531 9.0625 10.8094 9.0625H15.6188C15.8958 9.0625 16.1432 9.15651 16.3609 9.34453C16.5786 9.53255 16.7073 9.75521 16.7469 10.0125L17.5187 14.1687C17.5583 14.4854 17.5484 14.7526 17.4891 14.9703C17.4297 15.188 17.3208 15.376 17.1625 15.5344L14.2828 18.4437C14.6786 19.176 15.1487 19.8836 15.693 20.5664C16.2372 21.2492 16.8359 21.9073 17.4891 22.5406C18.1026 23.1542 18.7458 23.7232 19.4187 24.2477C20.0917 24.7721 20.8042 25.2521 21.5562 25.6875L24.3469 22.8969C24.525 22.7188 24.7576 22.5852 25.0445 22.4961C25.3315 22.407 25.6135 22.3823 25.8906 22.4219L29.9875 23.2531C30.2646 23.3323 30.4922 23.4758 30.6703 23.6836C30.8484 23.8914 30.9375 24.124 30.9375 24.3812V29.1906C30.9375 29.5469 30.8188 29.8438 30.5812 30.0812C30.3438 30.3188 30.0469 30.4375 29.6906 30.4375ZM13.1547 16.1875L15.1141 14.2281L14.6094 11.4375H11.9672C12.0661 12.249 12.2047 13.0505 12.3828 13.8422C12.5609 14.6339 12.8182 15.4156 13.1547 16.1875ZM23.7828 26.8156C24.5547 27.1521 25.3414 27.4193 26.143 27.6172C26.9445 27.8151 27.751 27.9438 28.5625 28.0031V25.3906L25.7719 24.8266L23.7828 26.8156Z" fill="black"/>
<g clip-path="url(#clip1_706_5171)">
<path d="M29.6906 30.4375C27.2167 30.4375 24.7724 29.8982 22.3578 28.8195C19.9432 27.7409 17.7464 26.212 15.7672 24.2328C13.788 22.2536 12.2591 20.0568 11.1805 17.6422C10.1018 15.2276 9.5625 12.7833 9.5625 10.3094C9.5625 9.95312 9.68125 9.65625 9.91875 9.41875C10.1562 9.18125 10.4531 9.0625 10.8094 9.0625H15.6188C15.8958 9.0625 16.1432 9.15651 16.3609 9.34453C16.5786 9.53255 16.7073 9.75521 16.7469 10.0125L17.5187 14.1687C17.5583 14.4854 17.5484 14.7526 17.4891 14.9703C17.4297 15.188 17.3208 15.376 17.1625 15.5344L14.2828 18.4437C14.6786 19.176 15.1487 19.8836 15.693 20.5664C16.2372 21.2492 16.8359 21.9073 17.4891 22.5406C18.1026 23.1542 18.7458 23.7232 19.4187 24.2477C20.0917 24.7721 20.8042 25.2521 21.5562 25.6875L24.3469 22.8969C24.525 22.7188 24.7576 22.5852 25.0445 22.4961C25.3315 22.407 25.6135 22.3823 25.8906 22.4219L29.9875 23.2531C30.2646 23.3323 30.4922 23.4758 30.6703 23.6836C30.8484 23.8914 30.9375 24.124 30.9375 24.3812V29.1906C30.9375 29.5469 30.8188 29.8438 30.5812 30.0812C30.3438 30.3188 30.0469 30.4375 29.6906 30.4375ZM13.1547 16.1875L15.1141 14.2281L14.6094 11.4375H11.9672C12.0661 12.249 12.2047 13.0505 12.3828 13.8422C12.5609 14.6339 12.8182 15.4156 13.1547 16.1875ZM23.7828 26.8156C24.5547 27.1521 25.3414 27.4193 26.143 27.6172C26.9445 27.8151 27.751 27.9438 28.5625 28.0031V25.3906L25.7719 24.8266L23.7828 26.8156Z" fill="#FF7900"/>
</g>
</g>
<defs>
<clipPath id="clip0_706_5171">
<rect width="28.5" height="28.5" fill="white" transform="translate(6 5.5)"/>
</clipPath>
<clipPath id="clip1_706_5171">
<rect width="29" height="12" fill="white" transform="translate(6 22.5)"/>
</clipPath>
</defs>
</svg>
