<svg width="40" height="40" viewBox="0 0 40 40" fill="none" xmlns="http://www.w3.org/2000/svg">
<rect x="0.5" y="0.5" width="39" height="39" rx="7.5" fill="white"/>
<rect x="0.5" y="0.5" width="39" height="39" rx="7.5" stroke="#E7E7E7"/>
<path d="M20.3614 32C21.0669 32 21.7571 31.7907 22.3438 31.3987C22.9305 31.0067 23.3876 30.4493 23.6576 29.7975C23.9276 29.1456 23.9983 28.4283 23.8606 27.7363C23.723 27.0443 23.3834 26.4089 22.8845 25.91C22.3856 25.411 21.7495 25.0711 21.0575 24.9335C20.3654 24.7958 19.6485 24.8665 18.9966 25.1365C18.3448 25.4065 17.7874 25.8636 17.3954 26.4503C17.0034 27.037 16.7944 27.7268 16.7944 28.4324C16.7944 29.3786 17.1699 30.2858 17.8389 30.9548C18.5079 31.6239 19.4152 32 20.3614 32Z" fill="#FF7900"/>
<path d="M28.8956 19.813L28.7308 19.6485L28.5667 19.4837L28.4843 19.4013C26.2661 17.3793 23.3534 16.2908 20.3528 16.3623C17.3522 16.4339 14.4947 17.6601 12.3755 19.7855L11.8542 20.3071L11.1407 21.0206C10.7222 21.4391 10.4868 22.0066 10.4868 22.5984C10.4868 23.1903 10.7222 23.7577 11.1407 24.1762C11.5592 24.5947 12.1267 24.8301 12.7185 24.8301C13.3103 24.8301 13.8778 24.5947 14.2963 24.1762L15.5317 22.9414C16.8791 21.5968 18.7045 20.8418 20.6081 20.8418C22.5116 20.8418 24.3377 21.5968 25.6851 22.9414L26.5628 23.7923C26.8736 24.1002 27.2685 24.3094 27.6977 24.3939C28.1269 24.4785 28.5717 24.4343 28.976 24.2673C29.3803 24.1003 29.7265 23.8178 29.9709 23.455C30.2154 23.0922 30.3472 22.6654 30.3501 22.2279C30.353 21.936 30.2959 21.6468 30.1826 21.3777C30.0694 21.1087 29.9023 20.8658 29.6915 20.6639L28.8407 19.7855L28.8956 19.813Z" fill="black"/>
<path d="M34.9598 15.399L34.2188 14.658L33.6426 14.0819C33.6426 14.0819 33.4234 13.8898 33.3137 13.8075C29.6531 10.6069 24.9261 8.89339 20.065 9.00514C15.2038 9.11689 10.561 11.0457 7.05145 14.4111C7.02401 14.4386 6.96902 14.4661 6.94158 14.4935L5.59694 15.8382C5.21485 16.2203 5 16.7386 5 17.279C5 17.8193 5.21485 18.3373 5.59694 18.7194C5.97904 19.1015 6.49701 19.3163 7.03738 19.3163C7.57775 19.3163 8.09639 19.1015 8.47849 18.7194L9.82312 17.3748V17.3473C12.664 14.6106 16.4494 13.0725 20.3939 13.0521C24.3385 13.0317 28.1392 14.5307 31.0083 17.2378L32.0508 18.2806C32.24 18.4698 32.4648 18.6197 32.712 18.7221C32.9592 18.8245 33.2243 18.8772 33.4919 18.8772C33.7594 18.8772 34.0245 18.8245 34.2717 18.7221C34.5189 18.6197 34.7431 18.4698 34.9323 18.2806C35.1215 18.0914 35.2714 17.8665 35.3738 17.6193C35.4762 17.3721 35.5293 17.1074 35.5293 16.8398C35.5293 16.5722 35.4762 16.3071 35.3738 16.0599C35.2714 15.8127 35.1215 15.5882 34.9323 15.399H34.9598Z" fill="black"/>
<path d="M30 35C31.3845 35 32.738 34.5894 33.8892 33.8202C35.0403 33.0511 35.9375 31.9578 36.4673 30.6788C36.9971 29.3997 37.1356 27.9922 36.8655 26.6343C36.5954 25.2765 35.9289 24.0292 34.95 23.0502C33.971 22.0713 32.7236 21.4046 31.3657 21.1345C30.0079 20.8644 28.6004 21.003 27.3213 21.5328C26.0422 22.0626 24.9491 22.9599 24.1799 24.111C23.4108 25.2622 23 26.6155 23 28C23 29.8565 23.7375 31.637 25.0503 32.9498C26.363 34.2625 28.1435 35 30 35Z" fill="white"/>
<path d="M28.8898 28.7485L27.4599 27.2185C27.3673 27.1145 27.253 27.032 27.1252 26.9767C26.9974 26.9215 26.8591 26.8948 26.7199 26.8985C26.581 26.8971 26.4433 26.9248 26.3159 26.9799C26.1884 27.035 26.0737 27.1163 25.9797 27.2185C25.7773 27.428 25.6629 27.7071 25.6599 27.9985C25.6531 28.1422 25.6761 28.2858 25.7277 28.42C25.7794 28.5543 25.8586 28.6764 25.9599 28.7785L28.1699 31.0885C28.2619 31.1905 28.3746 31.2718 28.5004 31.327C28.6263 31.3822 28.7624 31.41 28.8998 31.4085C29.0369 31.4076 29.1723 31.3788 29.2978 31.3238C29.4233 31.2688 29.5363 31.1887 29.6298 31.0885L34.0497 26.4585C34.1505 26.3555 34.2299 26.2335 34.2831 26.0996C34.3364 25.9657 34.3624 25.8226 34.3598 25.6785C34.3603 25.3884 34.2493 25.1091 34.0497 24.8985C33.9571 24.7945 33.8431 24.7119 33.7153 24.6567C33.5874 24.6014 33.449 24.5747 33.3098 24.5785C33.1709 24.577 33.0332 24.6047 32.9057 24.6598C32.7782 24.715 32.6638 24.7963 32.5698 24.8985L28.9099 28.7385L28.8898 28.7485Z" fill="#FF7900"/>
</svg>
