<svg width="40" height="40" viewBox="0 0 40 40" fill="none" xmlns="http://www.w3.org/2000/svg">
<rect x="0.5" y="0.5" width="39" height="39" rx="7.5" fill="white"/>
<rect x="0.5" y="0.5" width="39" height="39" rx="7.5" stroke="#E7E7E7"/>
<path d="M9.0498 29V26.2C9.0498 25.65 9.19147 25.1333 9.4748 24.65C9.75814 24.1667 10.1498 23.8 10.6498 23.55C11.4998 23.1167 12.4581 22.75 13.5248 22.45C14.5915 22.15 15.7665 22 17.0498 22C18.3331 22 19.5081 22.15 20.5748 22.45C21.6415 22.75 22.5998 23.1167 23.4498 23.55C23.9498 23.8 24.3415 24.1667 24.6248 24.65C24.9081 25.1333 25.0498 25.65 25.0498 26.2V29H9.0498ZM11.0498 27H23.0498V26.2C23.0498 26.0167 23.004 25.85 22.9123 25.7C22.8206 25.55 22.6998 25.4333 22.5498 25.35C21.9498 25.05 21.179 24.75 20.2373 24.45C19.2956 24.15 18.2331 24 17.0498 24C15.8665 24 14.804 24.15 13.8623 24.45C12.9206 24.75 12.1498 25.05 11.5498 25.35C11.3998 25.4333 11.279 25.55 11.1873 25.7C11.0956 25.85 11.0498 26.0167 11.0498 26.2V27ZM17.0498 21C15.9498 21 15.0081 20.6083 14.2248 19.825C13.4415 19.0417 13.0498 18.1 13.0498 17H12.7998C12.6498 17 12.529 16.9542 12.4373 16.8625C12.3456 16.7708 12.2998 16.65 12.2998 16.5C12.2998 16.35 12.3456 16.2292 12.4373 16.1375C12.529 16.0458 12.6498 16 12.7998 16H13.0498C13.0498 15.25 13.2331 14.575 13.5998 13.975C13.9665 13.375 14.4498 12.9 15.0498 12.55V13.5C15.0498 13.65 15.0956 13.7708 15.1873 13.8625C15.279 13.9542 15.3998 14 15.5498 14C15.6998 14 15.8206 13.9542 15.9123 13.8625C16.004 13.7708 16.0498 13.65 16.0498 13.5V12.15C16.1998 12.1 16.3581 12.0625 16.5248 12.0375C16.6915 12.0125 16.8665 12 17.0498 12C17.2331 12 17.4081 12.0125 17.5748 12.0375C17.7415 12.0625 17.8998 12.1 18.0498 12.15V13.5C18.0498 13.65 18.0956 13.7708 18.1873 13.8625C18.279 13.9542 18.3998 14 18.5498 14C18.6998 14 18.8206 13.9542 18.9123 13.8625C19.004 13.7708 19.0498 13.65 19.0498 13.5V12.55C19.6498 12.9 20.1331 13.375 20.4998 13.975C20.8665 14.575 21.0498 15.25 21.0498 16H21.2998C21.4498 16 21.5706 16.0458 21.6623 16.1375C21.754 16.2292 21.7998 16.35 21.7998 16.5C21.7998 16.65 21.754 16.7708 21.6623 16.8625C21.5706 16.9542 21.4498 17 21.2998 17H21.0498C21.0498 18.1 20.6581 19.0417 19.8748 19.825C19.0915 20.6083 18.1498 21 17.0498 21ZM17.0498 19C17.5998 19 18.0706 18.8042 18.4623 18.4125C18.854 18.0208 19.0498 17.55 19.0498 17H15.0498C15.0498 17.55 15.2456 18.0208 15.6373 18.4125C16.029 18.8042 16.4998 19 17.0498 19ZM24.5498 23L24.3998 22.25C24.2998 22.2167 24.204 22.1792 24.1123 22.1375C24.0206 22.0958 23.9331 22.0333 23.8498 21.95L23.1498 22.2L22.6498 21.3L23.1998 20.8V20.2L22.6498 19.7L23.1498 18.8L23.8498 19.05C23.9165 18.9833 23.9998 18.925 24.0998 18.875C24.1998 18.825 24.2998 18.7833 24.3998 18.75L24.5498 18H25.5498L25.6998 18.75C25.7998 18.7833 25.8998 18.825 25.9998 18.875C26.0998 18.925 26.1831 18.9833 26.2498 19.05L26.9498 18.8L27.4498 19.7L26.8998 20.2V20.8L27.4498 21.3L26.9498 22.2L26.2498 21.95C26.1665 22.0333 26.079 22.0958 25.9873 22.1375C25.8956 22.1792 25.7998 22.2167 25.6998 22.25L25.5498 23H24.5498ZM25.0498 21.25C25.2498 21.25 25.4248 21.175 25.5748 21.025C25.7248 20.875 25.7998 20.7 25.7998 20.5C25.7998 20.3 25.7248 20.125 25.5748 19.975C25.4248 19.825 25.2498 19.75 25.0498 19.75C24.8498 19.75 24.6748 19.825 24.5248 19.975C24.3748 20.125 24.2998 20.3 24.2998 20.5C24.2998 20.7 24.3748 20.875 24.5248 21.025C24.6748 21.175 24.8498 21.25 25.0498 21.25ZM26.8498 18L26.6498 16.95C26.4998 16.9 26.3623 16.8375 26.2373 16.7625C26.1123 16.6875 25.9998 16.6 25.8998 16.5L24.8498 16.85L24.1498 15.65L24.9998 14.9C24.9665 14.8167 24.9498 14.75 24.9498 14.7V14.3C24.9498 14.25 24.9665 14.1833 24.9998 14.1L24.1498 13.35L24.8498 12.15L25.8998 12.5C25.9998 12.4 26.1123 12.3125 26.2373 12.2375C26.3623 12.1625 26.4998 12.1 26.6498 12.05L26.8498 11H28.2498L28.4498 12.05C28.5998 12.1 28.7373 12.1625 28.8623 12.2375C28.9873 12.3125 29.0998 12.4 29.1998 12.5L30.2498 12.15L30.9498 13.35L30.0998 14.1C30.1331 14.1833 30.1498 14.25 30.1498 14.3V14.7C30.1498 14.75 30.1331 14.8167 30.0998 14.9L30.9498 15.65L30.2498 16.85L29.1998 16.5C29.0998 16.6 28.9873 16.6875 28.8623 16.7625C28.7373 16.8375 28.5998 16.9 28.4498 16.95L28.2498 18H26.8498ZM27.5498 15.75C27.8998 15.75 28.1956 15.6292 28.4373 15.3875C28.679 15.1458 28.7998 14.85 28.7998 14.5C28.7998 14.15 28.679 13.8542 28.4373 13.6125C28.1956 13.3708 27.8998 13.25 27.5498 13.25C27.1998 13.25 26.904 13.3708 26.6623 13.6125C26.4206 13.8542 26.2998 14.15 26.2998 14.5C26.2998 14.85 26.4206 15.1458 26.6623 15.3875C26.904 15.6292 27.1998 15.75 27.5498 15.75Z" fill="black"/>
<path d="M24.5 23L24.35 22.25C24.25 22.2167 24.1542 22.1792 24.0625 22.1375C23.9708 22.0958 23.8833 22.0333 23.8 21.95L23.1 22.2L22.6 21.3L23.15 20.8V20.2L22.6 19.7L23.1 18.8L23.8 19.05C23.8667 18.9833 23.95 18.925 24.05 18.875C24.15 18.825 24.25 18.7833 24.35 18.75L24.5 18H25.5L25.65 18.75C25.75 18.7833 25.85 18.825 25.95 18.875C26.05 18.925 26.1333 18.9833 26.2 19.05L26.9 18.8L27.4 19.7L26.85 20.2V20.8L27.4 21.3L26.9 22.2L26.2 21.95C26.1167 22.0333 26.0292 22.0958 25.9375 22.1375C25.8458 22.1792 25.75 22.2167 25.65 22.25L25.5 23H24.5ZM25 21.25C25.2 21.25 25.375 21.175 25.525 21.025C25.675 20.875 25.75 20.7 25.75 20.5C25.75 20.3 25.675 20.125 25.525 19.975C25.375 19.825 25.2 19.75 25 19.75C24.8 19.75 24.625 19.825 24.475 19.975C24.325 20.125 24.25 20.3 24.25 20.5C24.25 20.7 24.325 20.875 24.475 21.025C24.625 21.175 24.8 21.25 25 21.25ZM26.8 18L26.6 16.95C26.45 16.9 26.3125 16.8375 26.1875 16.7625C26.0625 16.6875 25.95 16.6 25.85 16.5L24.8 16.85L24.1 15.65L24.95 14.9C24.9167 14.8167 24.9 14.75 24.9 14.7V14.3C24.9 14.25 24.9167 14.1833 24.95 14.1L24.1 13.35L24.8 12.15L25.85 12.5C25.95 12.4 26.0625 12.3125 26.1875 12.2375C26.3125 12.1625 26.45 12.1 26.6 12.05L26.8 11H28.2L28.4 12.05C28.55 12.1 28.6875 12.1625 28.8125 12.2375C28.9375 12.3125 29.05 12.4 29.15 12.5L30.2 12.15L30.9 13.35L30.05 14.1C30.0833 14.1833 30.1 14.25 30.1 14.3V14.7C30.1 14.75 30.0833 14.8167 30.05 14.9L30.9 15.65L30.2 16.85L29.15 16.5C29.05 16.6 28.9375 16.6875 28.8125 16.7625C28.6875 16.8375 28.55 16.9 28.4 16.95L28.2 18H26.8ZM27.5 15.75C27.85 15.75 28.1458 15.6292 28.3875 15.3875C28.6292 15.1458 28.75 14.85 28.75 14.5C28.75 14.15 28.6292 13.8542 28.3875 13.6125C28.1458 13.3708 27.85 13.25 27.5 13.25C27.15 13.25 26.8542 13.3708 26.6125 13.6125C26.3708 13.8542 26.25 14.15 26.25 14.5C26.25 14.85 26.3708 15.1458 26.6125 15.3875C26.8542 15.6292 27.15 15.75 27.5 15.75Z" fill="#FF7900"/>
</svg>
