<svg width="40" height="40" viewBox="0 0 40 40" fill="none" xmlns="http://www.w3.org/2000/svg">
<rect x="0.5" y="0.5" width="39" height="39" rx="7.5" fill="white"/>
<rect x="0.5" y="0.5" width="39" height="39" rx="7.5" stroke="#E7E7E7"/>
<path d="M13.85 20L13.55 18.5C13.35 18.4167 13.1625 18.3292 12.9875 18.2375C12.8125 18.1458 12.6333 18.0333 12.45 17.9L11 18.35L10 16.65L11.15 15.65C11.1167 15.4333 11.1 15.2167 11.1 15C11.1 14.7833 11.1167 14.5667 11.15 14.35L10 13.35L11 11.65L12.45 12.1C12.6333 11.9667 12.8125 11.8542 12.9875 11.7625C13.1625 11.6708 13.35 11.5833 13.55 11.5L13.85 10H15.85L16.15 11.5C16.35 11.5833 16.5375 11.6708 16.7125 11.7625C16.8875 11.8542 17.0667 11.9667 17.25 12.1L18.7 11.65L19.7 13.35L18.55 14.35C18.5833 14.5667 18.6 14.7833 18.6 15C18.6 15.2167 18.5833 15.4333 18.55 15.65L19.7 16.65L18.7 18.35L17.25 17.9C17.0667 18.0333 16.8875 18.1458 16.7125 18.2375C16.5375 18.3292 16.35 18.4167 16.15 18.5L15.85 20H13.85ZM14.85 17C15.4 17 15.8708 16.8042 16.2625 16.4125C16.6542 16.0208 16.85 15.55 16.85 15C16.85 14.45 16.6542 13.9792 16.2625 13.5875C15.8708 13.1958 15.4 13 14.85 13C14.3 13 13.8292 13.1958 13.4375 13.5875C13.0458 13.9792 12.85 14.45 12.85 15C12.85 15.55 13.0458 16.0208 13.4375 16.4125C13.8292 16.8042 14.3 17 14.85 17ZM22.8 31L22.35 28.9C22.0667 28.8 21.8042 28.6792 21.5625 28.5375C21.3208 28.3958 21.0833 28.2333 20.85 28.05L18.85 28.7L17.45 26.3L19.05 24.9C19.0167 24.6 19 24.3 19 24C19 23.7 19.0167 23.4 19.05 23.1L17.45 21.7L18.85 19.3L20.85 19.95C21.0833 19.7667 21.3208 19.6042 21.5625 19.4625C21.8042 19.3208 22.0667 19.2 22.35 19.1L22.8 17H25.6L26.05 19.1C26.3333 19.2 26.5958 19.3208 26.8375 19.4625C27.0792 19.6042 27.3167 19.7667 27.55 19.95L29.55 19.3L30.95 21.7L29.35 23.1C29.3833 23.4 29.4 23.7 29.4 24C29.4 24.3 29.3833 24.6 29.35 24.9L30.95 26.3L29.55 28.7L27.55 28.05C27.3167 28.2333 27.0792 28.3958 26.8375 28.5375C26.5958 28.6792 26.3333 28.8 26.05 28.9L25.6 31H22.8ZM24.2 27C25.0333 27 25.7417 26.7083 26.325 26.125C26.9083 25.5417 27.2 24.8333 27.2 24C27.2 23.1667 26.9083 22.4583 26.325 21.875C25.7417 21.2917 25.0333 21 24.2 21C23.3667 21 22.6583 21.2917 22.075 21.875C21.4917 22.4583 21.2 23.1667 21.2 24C21.2 24.8333 21.4917 25.5417 22.075 26.125C22.6583 26.7083 23.3667 27 24.2 27Z" fill="black"/>
<path d="M13.85 20L13.55 18.5C13.35 18.4167 13.1625 18.3292 12.9875 18.2375C12.8125 18.1458 12.6333 18.0333 12.45 17.9L11 18.35L10 16.65L11.15 15.65C11.1167 15.4333 11.1 15.2167 11.1 15C11.1 14.7833 11.1167 14.5667 11.15 14.35L10 13.35L11 11.65L12.45 12.1C12.6333 11.9667 12.8125 11.8542 12.9875 11.7625C13.1625 11.6708 13.35 11.5833 13.55 11.5L13.85 10H15.85L16.15 11.5C16.35 11.5833 16.5375 11.6708 16.7125 11.7625C16.8875 11.8542 17.0667 11.9667 17.25 12.1L18.7 11.65L19.7 13.35L18.55 14.35C18.5833 14.5667 18.6 14.7833 18.6 15C18.6 15.2167 18.5833 15.4333 18.55 15.65L19.7 16.65L18.7 18.35L17.25 17.9C17.0667 18.0333 16.8875 18.1458 16.7125 18.2375C16.5375 18.3292 16.35 18.4167 16.15 18.5L15.85 20H13.85ZM14.85 17C15.4 17 15.8708 16.8042 16.2625 16.4125C16.6542 16.0208 16.85 15.55 16.85 15C16.85 14.45 16.6542 13.9792 16.2625 13.5875C15.8708 13.1958 15.4 13 14.85 13C14.3 13 13.8292 13.1958 13.4375 13.5875C13.0458 13.9792 12.85 14.45 12.85 15C12.85 15.55 13.0458 16.0208 13.4375 16.4125C13.8292 16.8042 14.3 17 14.85 17Z" fill="#FF7900"/>
</svg>
