<svg width="40" height="40" viewBox="0 0 40 40" fill="none" xmlns="http://www.w3.org/2000/svg">
<rect x="0.5" y="0.5" width="39" height="39" rx="7.5" fill="white"/>
<rect x="0.5" y="0.5" width="39" height="39" rx="7.5" stroke="#E7E7E7"/>
<g clip-path="url(#clip0_994_1392)">
<path d="M12.5208 31.2917C10.9934 31.2917 9.69141 30.7534 8.61484 29.6768C7.53828 28.6003 7 27.2983 7 25.7708C7 24.2434 7.53828 22.9414 8.61484 21.8648C9.69141 20.7883 10.9934 20.25 12.5208 20.25C14.0483 20.25 15.3503 20.7883 16.4268 21.8648C17.5034 22.9414 18.0417 24.2434 18.0417 25.7708C18.0417 27.2983 17.5034 28.6003 16.4268 29.6768C15.3503 30.7534 14.0483 31.2917 12.5208 31.2917ZM12.5208 29.0833C13.441 29.0833 14.2231 28.7613 14.8672 28.1172C15.5113 27.4731 15.8333 26.691 15.8333 25.7708C15.8333 24.8507 15.5113 24.0686 14.8672 23.4245C14.2231 22.7804 13.441 22.4583 12.5208 22.4583C11.6007 22.4583 10.8186 22.7804 10.1745 23.4245C9.53038 24.0686 9.20833 24.8507 9.20833 25.7708C9.20833 26.691 9.53038 27.4731 10.1745 28.1172C10.8186 28.7613 11.6007 29.0833 12.5208 29.0833ZM19.1458 27.9792V22.4583L15.6125 19.3667C15.3917 19.1642 15.226 18.9296 15.1156 18.6628C15.0052 18.3959 14.95 18.1153 14.95 17.8208C14.95 17.5264 15.0098 17.2457 15.1294 16.9789C15.249 16.7121 15.4101 16.4774 15.6125 16.275L18.7042 13.1833C18.925 12.9625 19.178 12.7969 19.4633 12.6865C19.7485 12.576 20.0476 12.5208 20.3604 12.5208C20.6733 12.5208 20.9723 12.576 21.2576 12.6865C21.5428 12.7969 21.7958 12.9625 22.0167 13.1833L24.1146 15.2812C24.6299 15.7965 25.2188 16.2014 25.8813 16.4958C26.5438 16.7903 27.2431 16.9375 27.9792 16.9375V19.1458C26.9302 19.1458 25.9319 18.9434 24.9841 18.5385C24.0364 18.1337 23.1944 17.5632 22.4583 16.8271L21.575 15.9437L18.925 18.5938L21.3542 21.1333V27.9792H19.1458ZM24.1146 13.0729C23.5073 13.0729 22.9874 12.8567 22.5549 12.4242C22.1225 11.9918 21.9062 11.4719 21.9062 10.8646C21.9062 10.2573 22.1225 9.73741 22.5549 9.30495C22.9874 8.87248 23.5073 8.65625 24.1146 8.65625C24.7219 8.65625 25.2418 8.87248 25.6742 9.30495C26.1067 9.73741 26.3229 10.2573 26.3229 10.8646C26.3229 11.4719 26.1067 11.9918 25.6742 12.4242C25.2418 12.8567 24.7219 13.0729 24.1146 13.0729ZM27.9792 31.2917C26.4517 31.2917 25.1497 30.7534 24.0732 29.6768C22.9966 28.6003 22.4583 27.2983 22.4583 25.7708C22.4583 24.2434 22.9966 22.9414 24.0732 21.8648C25.1497 20.7883 26.4517 20.25 27.9792 20.25C29.5066 20.25 30.8086 20.7883 31.8852 21.8648C32.9617 22.9414 33.5 24.2434 33.5 25.7708C33.5 27.2983 32.9617 28.6003 31.8852 29.6768C30.8086 30.7534 29.5066 31.2917 27.9792 31.2917ZM27.9792 29.0833C28.8993 29.0833 29.6814 28.7613 30.3255 28.1172C30.9696 27.4731 31.2917 26.691 31.2917 25.7708C31.2917 24.8507 30.9696 24.0686 30.3255 23.4245C29.6814 22.7804 28.8993 22.4583 27.9792 22.4583C27.059 22.4583 26.2769 22.7804 25.6328 23.4245C24.9887 24.0686 24.6667 24.8507 24.6667 25.7708C24.6667 26.691 24.9887 27.4731 25.6328 28.1172C26.2769 28.7613 27.059 29.0833 27.9792 29.0833Z" fill="black"/>
<rect x="8.38021" y="21.6302" width="8.28125" height="8.28125" rx="4.14062" stroke="#FF7900" stroke-width="2.76042"/>
<rect x="23.8387" y="21.6302" width="8.28125" height="8.28125" rx="4.14062" stroke="#FF7900" stroke-width="2.76042"/>
</g>
<defs>
<clipPath id="clip0_994_1392">
<rect width="26.5" height="26.5" fill="white" transform="translate(7 7)"/>
</clipPath>
</defs>
</svg>
