<svg width="23" height="22" viewBox="0 0 23 22" fill="none" xmlns="http://www.w3.org/2000/svg">
<path d="M16.194 11.5722V8.06307C16.1634 7.76229 16.3466 7.48156 16.6215 7.38129C16.9574 7.25095 17.3238 7.41137 17.4561 7.74224C17.4867 7.82245 17.507 7.90265 17.4968 7.98286C17.4968 9.00553 17.4968 10.0382 17.4968 11.0609V11.5321C17.8531 11.5923 18.1992 11.6224 18.5351 11.7026C20.4792 12.1939 21.66 14.149 21.1612 16.074C20.8049 17.4375 19.6649 18.4803 18.2603 18.7209C18.0261 18.761 17.7818 18.7911 17.5376 18.7911C13.2421 18.7911 8.95686 18.7911 4.66142 18.7911C2.64603 18.8312 0.96653 17.2571 0.925815 15.2619C0.8851 13.4371 2.24905 11.863 4.08123 11.6224C4.29499 11.5923 4.51892 11.5823 4.73267 11.5823H16.194V11.5722ZM10.6567 14.54H9.58794C9.22151 14.5099 8.90597 14.7806 8.88561 15.1415C8.86525 15.4925 9.14008 15.7832 9.49633 15.8033C9.50651 15.8033 9.51669 15.8033 9.53705 15.8033C10.2801 15.8233 11.0333 15.8233 11.7866 15.8033C12.1428 15.8033 12.4278 15.5326 12.438 15.1816C12.438 15.1716 12.438 15.1616 12.438 15.1516C12.4176 14.7906 12.1021 14.5199 11.7357 14.54H10.6669M3.75551 15.1716C3.75551 15.5827 4.08123 15.9236 4.49856 15.9336C4.49856 15.9336 4.51892 15.9336 4.5291 15.9336C4.94643 15.9436 5.30268 15.6128 5.31286 15.2017C5.31286 15.2017 5.31286 15.2017 5.31286 15.1917C5.31286 14.7605 4.96678 14.4197 4.5291 14.4096C4.10159 14.4096 3.75551 14.7505 3.75551 15.1716ZM6.3002 15.1716C6.29002 15.5827 6.61574 15.9236 7.03307 15.9336C7.03307 15.9336 7.05343 15.9336 7.06361 15.9336C7.48094 15.9436 7.8372 15.6228 7.85755 15.2117C7.85755 15.2017 7.85755 15.1917 7.85755 15.1716C7.85755 14.7505 7.5013 14.4197 7.08397 14.4096C6.65646 14.4096 6.31038 14.7505 6.31038 15.1716" fill="#F16E00"/>
<path d="M16.8466 2.75075C18.1393 2.7307 19.4014 3.11169 20.46 3.8436C20.6738 3.97394 20.7857 4.21457 20.7552 4.4552C20.7348 4.69583 20.572 4.89635 20.348 4.97656C20.1343 5.0668 19.89 5.03672 19.7068 4.89635C18.8212 4.29478 17.7626 3.994 16.6939 4.04413C15.7472 4.04413 14.8312 4.33489 14.0474 4.85625C13.7827 5.09687 13.3654 5.08685 13.1109 4.82617C12.8667 4.56549 12.8768 4.15442 13.1415 3.90376C13.1822 3.86366 13.2331 3.82355 13.2942 3.8035C14.3426 3.10167 15.5844 2.74073 16.8466 2.75075Z" fill="white"/>
<path d="M14.3198 6.25862C14.3198 6.01799 14.4521 5.78739 14.6761 5.68713C15.4598 5.26603 16.3556 5.08556 17.2513 5.16577C17.8824 5.20587 18.5033 5.38635 19.0529 5.69716C19.2972 5.8275 19.4296 6.0982 19.3787 6.36891C19.338 6.64964 19.1038 6.87022 18.8188 6.89027C18.6662 6.89027 18.5237 6.86019 18.3913 6.80003C17.4243 6.30875 16.2843 6.30875 15.3275 6.80003C15.0222 6.99053 14.615 6.9003 14.4216 6.59951C14.3504 6.49925 14.3198 6.37893 14.3198 6.24859" fill="white"/>
</svg>
