<svg width="40" height="40" viewBox="0 0 40 40" fill="none" xmlns="http://www.w3.org/2000/svg">
<g clip-path="url(#clip0_931_2569)">
<rect width="40" height="40" rx="8" fill="white"/>
<path d="M8.67596 27.7292L17.029 19.0503C16.8312 18.5874 16.6801 18.1176 16.5755 17.6408C16.4709 17.1641 16.4124 16.6571 16.3999 16.1198C16.3455 13.7837 17.117 11.7789 18.7143 10.1056C20.3115 8.43231 22.2782 7.56849 24.6144 7.51417C25.4554 7.49461 26.2582 7.59281 27.0229 7.80877C27.7876 8.02473 28.5135 8.33508 29.2008 8.73983L24.2036 13.9749L26.7853 16.4393L31.7825 11.2042C32.2187 11.8719 32.5625 12.5826 32.8137 13.3364C33.065 14.0902 33.2004 14.8877 33.22 15.7287C33.2743 18.0648 32.5028 20.0695 30.9056 21.7428C29.3083 23.4161 27.3416 24.2799 25.0055 24.3343C24.4682 24.3468 23.959 24.3119 23.4779 24.2295C22.9968 24.1472 22.5205 24.0181 22.0489 23.842L13.7676 32.5895C13.4938 32.8763 13.1583 33.0244 12.7612 33.0336C12.364 33.0428 12.022 32.9105 11.7352 32.6367L8.72322 29.7616C8.43637 29.4878 8.28832 29.1524 8.27909 28.7552C8.26986 28.3581 8.40214 28.0161 8.67596 27.7292ZM11.6782 28.6762L12.6463 29.6003L21.4084 20.421C21.8854 20.8306 22.4356 21.1217 23.059 21.2942C23.6825 21.4667 24.3095 21.5456 24.9403 21.5309C26.342 21.4983 27.5521 21.0202 28.5708 20.0967C29.5895 19.1731 30.1884 18.043 30.3677 16.7066L27.8349 19.36C27.5611 19.6468 27.2373 19.7946 26.8635 19.8033C26.4898 19.812 26.1594 19.6794 25.8726 19.4056L21.2829 15.0245C20.9961 14.7507 20.8483 14.4269 20.8396 14.0531C20.8309 13.6794 20.9635 13.349 21.2373 13.0622L23.7701 10.4088C22.4434 10.65 21.3424 11.3009 20.4672 12.3613C19.5919 13.4218 19.1706 14.6529 19.2032 16.0546C19.2173 16.662 19.3249 17.2672 19.5259 17.8703C19.7269 18.4733 20.0317 19.0155 20.4403 19.4968L11.6782 28.6762Z" fill="#170B00"/>
<g clip-path="url(#clip1_931_2569)">
<path d="M8.67572 27.7292L17.0287 19.0503C16.831 18.5874 16.6798 18.1176 16.5752 17.6408C16.4707 17.1641 16.4121 16.6571 16.3996 16.1198C16.3453 13.7837 17.1168 11.7789 18.714 10.1056C20.3113 8.43231 22.278 7.56849 24.6141 7.51417C25.4551 7.49461 26.258 7.59281 27.0226 7.80877C27.7873 8.02473 28.5133 8.33508 29.2005 8.73983L24.2034 13.9749L26.7851 16.4393L31.7822 11.2042C32.2185 11.8719 32.5622 12.5826 32.8135 13.3364C33.0648 14.0902 33.2002 14.8877 33.2197 15.7287C33.2741 18.0648 32.5026 20.0695 30.9053 21.7428C29.3081 23.4161 27.3414 24.2799 25.0052 24.3343C24.4679 24.3468 23.9587 24.3119 23.4777 24.2295C22.9966 24.1472 22.5203 24.0181 22.0487 23.842L13.7674 32.5895C13.4936 32.8763 13.1581 33.0244 12.7609 33.0336C12.3638 33.0428 12.0218 32.9105 11.7349 32.6367L8.72298 29.7616C8.43612 29.4878 8.28808 29.1524 8.27885 28.7552C8.26961 28.3581 8.4019 28.0161 8.67572 27.7292ZM11.6779 28.6762L12.646 29.6003L21.4082 20.421C21.8852 20.8306 22.4354 21.1217 23.0588 21.2942C23.6822 21.4667 24.3093 21.5456 24.9401 21.5309C26.3417 21.4983 27.5519 21.0202 28.5706 20.0967C29.5892 19.1731 30.1882 18.043 30.3675 16.7066L27.8347 19.36C27.5609 19.6468 27.2371 19.7946 26.8633 19.8033C26.4895 19.812 26.1592 19.6794 25.8723 19.4056L21.2827 15.0245C20.9958 14.7507 20.848 14.4269 20.8394 14.0531C20.8307 13.6794 20.9632 13.349 21.237 13.0622L23.7698 10.4088C22.4431 10.65 21.3422 11.3009 20.4669 12.3613C19.5917 13.4218 19.1704 14.6529 19.203 16.0546C19.2171 16.662 19.3247 17.2672 19.5257 17.8703C19.7267 18.4733 20.0315 19.0155 20.44 19.4968L11.6779 28.6762Z" fill="#FF7900"/>
</g>
</g>
<rect x="0.5" y="0.5" width="39" height="39" rx="7.5" stroke="#E7E7E7"/>
<defs>
<clipPath id="clip0_931_2569">
<rect width="40" height="40" rx="8" fill="white"/>
</clipPath>
<clipPath id="clip1_931_2569">
<rect width="8.41233" height="30.8452" fill="white" transform="translate(31.3157 9.56177) rotate(43.4045)"/>
</clipPath>
</defs>
</svg>
