<svg width="40" height="40" viewBox="0 0 40 40" fill="none" xmlns="http://www.w3.org/2000/svg">
<rect x="0.5" y="0.5" width="39" height="39" rx="7.5" fill="white"/>
<rect x="0.5" y="0.5" width="39" height="39" rx="7.5" stroke="#E7E7E7"/>
<path d="M20.3614 32C21.0669 32 21.7571 31.7907 22.3438 31.3987C22.9305 31.0067 23.3876 30.4493 23.6576 29.7975C23.9276 29.1456 23.9983 28.4283 23.8606 27.7363C23.723 27.0443 23.3834 26.4089 22.8845 25.91C22.3856 25.411 21.7495 25.0711 21.0575 24.9335C20.3654 24.7958 19.6485 24.8665 18.9966 25.1365C18.3448 25.4065 17.7874 25.8636 17.3954 26.4503C17.0034 27.037 16.7944 27.7268 16.7944 28.4324C16.7944 29.3786 17.1699 30.2858 17.8389 30.9548C18.5079 31.6239 19.4152 32 20.3614 32Z" fill="#FF7900"/>
<path d="M28.8956 19.813L28.7308 19.6485L28.5667 19.4837L28.4843 19.4013C26.2661 17.3793 23.3534 16.2907 20.3528 16.3623C17.3522 16.4339 14.4947 17.6601 12.3755 19.7855L11.8542 20.3071L11.1407 21.0206C10.7222 21.4391 10.4868 22.0066 10.4868 22.5984C10.4868 23.1902 10.7222 23.7577 11.1407 24.1762C11.5592 24.5947 12.1267 24.8301 12.7185 24.8301C13.3103 24.8301 13.8778 24.5947 14.2963 24.1762L15.5317 22.9414C16.8791 21.5968 18.7045 20.8417 20.6081 20.8417C22.5116 20.8417 24.3377 21.5968 25.6851 22.9414L26.5628 23.7923C26.8736 24.1001 27.2685 24.3094 27.6977 24.3939C28.1269 24.4784 28.5717 24.4343 28.976 24.2673C29.3803 24.1003 29.7265 23.8177 29.9709 23.4549C30.2154 23.0922 30.3472 22.6653 30.3501 22.2279C30.353 21.936 30.2959 21.6467 30.1826 21.3777C30.0694 21.1087 29.9023 20.8658 29.6915 20.6638L28.8407 19.7855L28.8956 19.813Z" fill="black"/>
<path d="M34.9598 15.399L34.2188 14.658L33.6426 14.0819C33.6426 14.0819 33.4234 13.8898 33.3137 13.8075C29.6531 10.6069 24.9261 8.89339 20.065 9.00514C15.2038 9.11689 10.561 11.0457 7.05145 14.4111C7.02401 14.4386 6.96902 14.4661 6.94158 14.4935L5.59694 15.8382C5.21485 16.2203 5 16.7386 5 17.279C5 17.8193 5.21485 18.3373 5.59694 18.7194C5.97904 19.1015 6.49701 19.3163 7.03738 19.3163C7.57775 19.3163 8.09639 19.1015 8.47849 18.7194L9.82312 17.3748V17.3473C12.664 14.6106 16.4494 13.0725 20.3939 13.0521C24.3385 13.0317 28.1392 14.5307 31.0083 17.2378L32.0508 18.2806C32.24 18.4698 32.4648 18.6197 32.712 18.7221C32.9592 18.8245 33.2243 18.8772 33.4919 18.8772C33.7594 18.8772 34.0245 18.8245 34.2717 18.7221C34.5189 18.6197 34.7431 18.4698 34.9323 18.2806C35.1215 18.0914 35.2714 17.8665 35.3738 17.6193C35.4762 17.3721 35.5293 17.1074 35.5293 16.8398C35.5293 16.5722 35.4762 16.3071 35.3738 16.0599C35.2714 15.8127 35.1215 15.5882 34.9323 15.399H34.9598Z" fill="black"/>
</svg>
