<svg width="40" height="40" viewBox="0 0 40 40" fill="none" xmlns="http://www.w3.org/2000/svg">
<rect x="0.5" y="0.5" width="39" height="39" rx="7.5" fill="white"/>
<rect x="0.5" y="0.5" width="39" height="39" rx="7.5" stroke="#E7E7E7"/>
<path d="M12.3125 30.4375H15.1875V27.5625H12.3125V30.4375ZM12.3125 24.6875H15.1875V18.9375H12.3125V24.6875ZM18.0625 30.4375H20.9375V24.6875H18.0625V30.4375ZM18.0625 21.8125H20.9375V18.9375H18.0625V21.8125ZM23.8125 30.4375H26.6875V27.5625H23.8125V30.4375ZM23.8125 24.6875H26.6875V18.9375H23.8125V24.6875ZM10.875 34.75C10.0844 34.75 9.40755 34.4685 8.84453 33.9055C8.28151 33.3424 8 32.6656 8 31.875V14.625L16.625 6H28.125C28.9156 6 29.5924 6.28151 30.1555 6.84453C30.7185 7.40755 31 8.08437 31 8.875V31.875C31 32.6656 30.7185 33.3424 30.1555 33.9055C29.5924 34.4685 28.9156 34.75 28.125 34.75H10.875ZM10.875 31.875H28.125V8.875H17.8469L10.875 15.8469V31.875Z" fill="black"/>
<rect width="2.875" height="5.75" transform="translate(12.3125 18.9375)" fill="#FF7900"/>
<rect width="2.875" height="5.75" transform="translate(18.0625 24.6875)" fill="#FF7900"/>
<rect width="2.875" height="5.75" transform="translate(23.8125 18.9375)" fill="#FF7900"/>
<rect width="2.875" height="2.875" transform="translate(18.0625 18.9375)" fill="#FF7900"/>
<rect width="2.875" height="2.875" transform="translate(12.3125 27.5625)" fill="#FF7900"/>
<rect width="2.875" height="2.875" transform="translate(23.8125 27.5625)" fill="#FF7900"/>
</svg>
