<svg width="22" height="17" viewBox="0 0 22 17" fill="none" xmlns="http://www.w3.org/2000/svg">
<path d="M11.0697 16.5742C11.5781 16.5742 12.0755 16.4234 12.4983 16.1409C12.921 15.8584 13.2504 15.4568 13.445 14.987C13.6396 14.5173 13.6905 14.0004 13.5913 13.5017C13.4921 13.003 13.2474 12.5452 12.8879 12.1856C12.5283 11.8261 12.07 11.5812 11.5713 11.482C11.0726 11.3828 10.556 11.4337 10.0862 11.6282C9.61646 11.8228 9.21482 12.1522 8.93233 12.575C8.64985 12.9978 8.49927 13.4949 8.49927 14.0034C8.49927 14.6852 8.76983 15.339 9.25194 15.8211C9.73406 16.3032 10.3879 16.5742 11.0697 16.5742Z" fill="#FF7900"/>
<path d="M17.2196 7.79205L17.1008 7.67352L16.9826 7.55476L16.9232 7.49537C15.3247 6.03827 13.2258 5.25384 11.0635 5.30542C8.90121 5.35699 6.84201 6.24061 5.31486 7.77226L4.93924 8.14811L4.42507 8.66229C4.12349 8.96386 3.95386 9.37278 3.95386 9.79927C3.95386 10.2258 4.12349 10.6347 4.42507 10.9363C4.72664 11.2378 5.13556 11.4075 5.56205 11.4075C5.98853 11.4075 6.39746 11.2378 6.69903 10.9363L7.5893 10.0465C8.56027 9.07749 9.8757 8.53338 11.2474 8.53338C12.6192 8.53338 13.9351 9.07749 14.9061 10.0465L15.5385 10.6596C15.7625 10.8814 16.0471 11.0322 16.3564 11.0932C16.6657 11.1541 16.9862 11.1223 17.2775 11.0019C17.5689 10.8816 17.8183 10.6779 17.9945 10.4165C18.1707 10.1551 18.2656 9.84751 18.2678 9.53228C18.2698 9.32195 18.2287 9.11348 18.1471 8.91962C18.0654 8.72576 17.945 8.55073 17.7932 8.4052L17.18 7.77226L17.2196 7.79205Z" fill="#FDFDFD"/>
<path d="M21.5896 4.61126L21.0557 4.07729L20.6404 3.66208C20.6404 3.66208 20.4825 3.5237 20.4034 3.46438C17.7656 1.15796 14.3592 -0.0768249 10.8561 0.00370483C7.35308 0.0842346 4.00739 1.47418 1.47832 3.89938C1.45854 3.91915 1.41892 3.93899 1.39914 3.95876L0.43017 4.92773C0.154822 5.20308 0 5.57658 0 5.96598C0 6.35538 0.154822 6.72864 0.43017 7.00399C0.705519 7.27934 1.07878 7.43416 1.46818 7.43416C1.85758 7.43416 2.23132 7.27934 2.50667 7.00399L3.47564 6.03502V6.01523C5.52281 4.04314 8.25068 2.93476 11.0932 2.92003C13.9357 2.9053 16.6746 3.98553 18.7421 5.93629L19.4933 6.68776C19.6297 6.8241 19.7917 6.93214 19.9698 7.00592C20.148 7.07971 20.339 7.11769 20.5318 7.11769C20.7246 7.11769 20.9157 7.07971 21.0938 7.00592C21.2719 6.93214 21.4335 6.8241 21.5698 6.68776C21.7062 6.55142 21.8142 6.38938 21.888 6.21124C21.9618 6.03311 22 5.84232 22 5.64951C22 5.4567 21.9618 5.26567 21.888 5.08754C21.8142 4.9094 21.7062 4.7476 21.5698 4.61126H21.5896Z" fill="#FDFDFD"/>
</svg>
