<svg width="66" height="66" viewBox="0 0 66 66" fill="none" xmlns="http://www.w3.org/2000/svg">
<rect width="66" height="66" rx="13" fill="#FF7900"/>
<path d="M40.5562 45.8517L46.7417 39.7107L44.8727 37.8417L40.5562 42.0692L38.8207 40.3337L36.9517 42.2472L40.5562 45.8517ZM20.4865 25.8266H41.8467V22.2665H20.4865V25.8266ZM41.8467 50.7468C39.3843 50.7468 37.2854 49.879 35.5499 48.1435C33.8144 46.408 32.9466 44.3091 32.9466 41.8467C32.9466 39.3843 33.8144 37.2854 35.5499 35.5499C37.2854 33.8144 39.3843 32.9466 41.8467 32.9466C44.3091 32.9466 46.408 33.8144 48.1435 35.5499C49.879 37.2854 50.7468 39.3843 50.7468 41.8467C50.7468 44.3091 49.879 46.408 48.1435 48.1435C46.408 49.879 44.3091 50.7468 41.8467 50.7468ZM15.1465 48.9668V18.7065C15.1465 17.7275 15.4951 16.8894 16.1922 16.1922C16.8894 15.4951 17.7275 15.1465 18.7065 15.1465H43.6267C44.6057 15.1465 45.4438 15.4951 46.141 16.1922C46.8382 16.8894 47.1867 17.7275 47.1867 18.7065V30.5881C46.6231 30.3211 46.0446 30.0986 45.4512 29.9206C44.8579 29.7426 44.2497 29.6091 43.6267 29.5201V18.7065H18.7065V43.7157H29.5201C29.6684 44.6354 29.8984 45.5106 30.2099 46.3412C30.5214 47.1719 30.9293 47.9581 31.4336 48.6998L31.1666 48.9668L28.4966 46.2967L25.8266 48.9668L23.1565 46.2967L20.4865 48.9668L17.8165 46.2967L15.1465 48.9668ZM20.4865 40.0667H29.5201C29.6091 39.4437 29.7426 38.8355 29.9206 38.2422C30.0986 37.6488 30.3211 37.0703 30.5881 36.5067H20.4865V40.0667ZM20.4865 32.9466H33.1246C34.252 31.849 35.5647 30.9812 37.0629 30.3434C38.5611 29.7055 40.1557 29.3866 41.8467 29.3866H20.4865V32.9466Z" fill="white"/>
<circle cx="41.8867" cy="41.8867" r="8.96679" fill="white"/>
<path d="M40.405 44.4596C41.3147 44.4596 42.0879 44.1412 42.7247 43.5045C43.3615 42.8677 43.6798 42.0945 43.6798 41.1848C43.6798 40.2751 43.3615 39.5019 42.7247 38.8651C42.0879 38.2284 41.3147 37.91 40.405 37.91C39.4953 37.91 38.7221 38.2284 38.0853 38.8651C37.4486 39.5019 37.1302 40.2751 37.1302 41.1848C37.1302 42.0945 37.4486 42.8677 38.0853 43.5045C38.7221 44.1412 39.4953 44.4596 40.405 44.4596ZM39.8319 43.1224L42.9157 40.025L42.1379 39.2472L39.8319 41.5669L38.6721 40.4207L37.8943 41.1848L39.8319 43.1224ZM40.405 45.5512C39.186 45.5512 38.1536 45.1282 37.3076 44.2822C36.4616 43.4362 36.0386 42.4038 36.0386 41.1848C36.0386 39.9658 36.4616 38.9334 37.3076 38.0874C38.1536 37.2414 39.186 36.8184 40.405 36.8184C41.624 36.8184 42.6565 37.2414 43.5025 38.0874C44.3484 38.9334 44.7714 39.9658 44.7714 41.1848C44.7714 41.6942 44.6918 42.1741 44.5327 42.6244C44.3735 43.0746 44.1483 43.4863 43.8572 43.8592L46.9547 46.9703L46.1905 47.7344L43.0795 44.637C42.7065 44.9281 42.2949 45.1532 41.8446 45.3124C41.3943 45.4716 40.9144 45.5512 40.405 45.5512Z" fill="#FF7900"/>
</svg>
