<svg width="40" height="40" viewBox="0 0 40 40" fill="none" xmlns="http://www.w3.org/2000/svg">
<rect x="0.5" y="0.5" width="39" height="39" rx="7.5" fill="white"/>
<rect x="0.5" y="0.5" width="39" height="39" rx="7.5" stroke="#E7E7E7"/>
<path d="M23.7627 26.5708L25.571 24.7625L20.7918 19.9833V14.0416H18.2085V21.0166L23.7627 26.5708ZM19.5002 33.4166C17.7134 33.4166 16.0342 33.0776 14.4627 32.3995C12.8911 31.7213 11.5241 30.801 10.3616 29.6385C9.19912 28.476 8.27881 27.109 7.60068 25.5375C6.92256 23.966 6.5835 22.2868 6.5835 20.5C6.5835 18.7132 6.92256 17.034 7.60068 15.4625C8.27881 13.891 9.19912 12.5239 10.3616 11.3614C11.5241 10.1989 12.8911 9.27863 14.4627 8.6005C16.0342 7.92238 17.7134 7.58331 19.5002 7.58331C21.287 7.58331 22.9661 7.92238 24.5377 8.6005C26.1092 9.27863 27.4762 10.1989 28.6387 11.3614C29.8012 12.5239 30.7215 13.891 31.3996 15.4625C32.0778 17.034 32.4168 18.7132 32.4168 20.5C32.4168 22.2868 32.0778 23.966 31.3996 25.5375C30.7215 27.109 29.8012 28.476 28.6387 29.6385C27.4762 30.801 26.1092 31.7213 24.5377 32.3995C22.9661 33.0776 21.287 33.4166 19.5002 33.4166ZM19.5002 30.8333C22.3634 30.8333 24.8014 29.8269 26.8142 27.814C28.8271 25.8012 29.8335 23.3632 29.8335 20.5C29.8335 17.6368 28.8271 15.1988 26.8142 13.1859C24.8014 11.1731 22.3634 10.1666 19.5002 10.1666C16.637 10.1666 14.1989 11.1731 12.1861 13.1859C10.1733 15.1988 9.16683 17.6368 9.16683 20.5C9.16683 23.3632 10.1733 25.8012 12.1861 27.814C14.1989 29.8269 16.637 30.8333 19.5002 30.8333Z" fill="#1F1F1F"/>
<path d="M19.5 14V20.5L25 26" stroke="#FF7900" stroke-width="3"/>
</svg>
